<svg width="22" height="22" viewBox="0 0 22 22" fill="none" xmlns="http://www.w3.org/2000/svg">
<path fill-rule="evenodd" clip-rule="evenodd" d="M6.69518 12.3908C6.05042 12.3908 5.52661 11.867 5.52661 11.2223C5.52661 10.5794 6.05042 10.0556 6.69518 10.0556C7.33994 10.0556 7.86375 10.5794 7.86375 11.2223C7.86375 11.867 7.33994 12.3908 6.69518 12.3908ZM11.238 12.3908C10.5933 12.3908 10.0695 11.867 10.0695 11.2223C10.0695 10.5794 10.5933 10.0556 11.238 10.0556C11.8828 10.0556 12.4066 10.5794 12.4066 11.2223C12.4066 11.867 11.8828 12.3908 11.238 12.3908ZM14.6124 11.2223C14.6124 11.867 15.1362 12.3908 15.781 12.3908C16.4258 12.3908 16.9496 11.867 16.9496 11.2223C16.9496 10.5794 16.4258 10.0556 15.781 10.0556C15.1362 10.0556 14.6124 10.5794 14.6124 11.2223Z" fill="#200E32"/>
<path fill-rule="evenodd" clip-rule="evenodd" d="M11.02 1C5.21 1 1 5.74612 1 11.015C1 12.6975 1.49 14.4291 2.35 16.0115C2.51 16.2729 2.53 16.6024 2.42 16.9139L1.75 19.1572C1.6 19.698 2.06 20.0976 2.57 19.9374L4.59 19.3375C5.14 19.1572 5.57 19.3866 6.08 19.698C7.54 20.5583 9.36 21 11 21C15.96 21 21 17.1642 21 10.985C21 5.65598 16.7 1 11.02 1Z" stroke="#200E32" stroke-width="1.5" stroke-linecap="round" stroke-linejoin="round"/>
</svg>
