<svg width="50" height="50" viewBox="0 0 50 50" fill="none" xmlns="http://www.w3.org/2000/svg">
<path d="M5.9 25.3156L5.90746 25.351C6.96936 30.3925 10.3671 34.7209 15.1756 36.9066L25 41.3722V36.1111H30.5556C38.2262 36.1111 44.4444 29.8928 44.4444 22.2222V19.4444C44.4444 11.7738 38.2262 5.55556 30.5556 5.55556H19.4444C11.7738 5.55556 5.55556 11.7738 5.55556 19.4444V22.2222C5.55556 23.2788 5.67254 24.3014 5.89208 25.2803L5.9 25.3156ZM30.5556 50L12.8767 41.9642C6.43852 39.0377 1.89242 33.2435 0.47119 26.4961C0.162748 25.1208 0 23.6905 0 22.2222V19.4444C0 8.70557 8.70557 0 19.4444 0H30.5556C41.2944 0 50 8.70557 50 19.4444V22.2222C50 32.9611 41.2944 41.6667 30.5556 41.6667V50Z" fill="#2E3A59"/>
</svg>
