<svg width="21" height="21" viewBox="0 0 21 21" fill="none" xmlns="http://www.w3.org/2000/svg">
<path d="M9.49224 0.789001H5.75324C2.67824 0.789001 0.750244 2.966 0.750244 6.048V14.362C0.750244 17.444 2.66924 19.621 5.75324 19.621H14.5772C17.6622 19.621 19.5812 17.444 19.5812 14.362V10.334" stroke="#200E32" stroke-width="1.5" stroke-linecap="round" stroke-linejoin="round"/>
<path fill-rule="evenodd" clip-rule="evenodd" d="M6.82763 8.92093L14.3006 1.44793C15.2316 0.517927 16.7406 0.517927 17.6716 1.44793L18.8886 2.66493C19.8196 3.59593 19.8196 5.10593 18.8886 6.03593L11.3796 13.5449C10.9726 13.9519 10.4206 14.1809 9.84463 14.1809H6.09863L6.19263 10.4009C6.20663 9.84493 6.43363 9.31493 6.82763 8.92093Z" stroke="#200E32" stroke-width="1.5" stroke-linecap="round" stroke-linejoin="round"/>
<path d="M13.165 2.60254L17.731 7.16854" stroke="#200E32" stroke-width="1.5" stroke-linecap="round" stroke-linejoin="round"/>
</svg>
