<svg width="55" height="50" viewBox="0 0 55 50" fill="none" xmlns="http://www.w3.org/2000/svg">
<path d="M27.5 49.9778C25.7263 48.3897 23.7215 46.7378 21.6013 44.9803H21.5738C14.1075 38.8168 5.6458 31.8425 1.90856 23.4857C0.680734 20.8251 0.0300486 17.9305 3.13664e-05 14.9955C-0.00816855 10.9684 1.59168 7.10781 4.43802 4.28642C7.28437 1.46502 11.1369 -0.0790744 15.125 0.00312141C18.3717 0.00829879 21.5486 0.955642 24.277 2.73229C25.4759 3.51792 26.5607 4.46823 27.5 5.55586C28.4446 4.4725 29.5296 3.52275 30.7257 2.73229C33.453 0.955291 36.6291 0.00789274 39.875 0.00312141C43.8631 -0.0790744 47.7156 1.46502 50.562 4.28642C53.4083 7.10781 55.0082 10.9684 55 14.9955C54.9719 17.9352 54.3212 20.8348 53.0914 23.4995C49.3542 31.8564 40.8952 38.8279 33.429 44.9803L33.4015 45.0025C31.2785 46.7489 29.2765 48.4008 27.5028 50L27.5 49.9778ZM15.125 5.55586C12.5634 5.5235 10.0927 6.51328 8.25004 8.31002C6.47461 10.0707 5.48233 12.483 5.49982 14.9955C5.5312 17.1347 6.01107 19.243 6.90805 21.1813C8.6722 24.787 11.0526 28.0502 13.9398 30.8208C16.665 33.5972 19.8 36.2847 22.5115 38.5447C23.2623 39.1694 24.0268 39.7996 24.7913 40.4299L25.2725 40.8269C26.0068 41.4321 26.7658 42.0596 27.5 42.6759L27.5357 42.6426L27.5523 42.6287H27.5688L27.5935 42.6093H27.6073H27.621L27.6705 42.5677L27.7832 42.476L27.8025 42.4594L27.8328 42.4372H27.8492L27.874 42.415L29.7 40.9018L30.1785 40.5048C30.9512 39.869 31.7157 39.2388 32.4665 38.6141C35.178 36.3541 38.3157 33.6694 41.041 30.8791C43.9286 28.1099 46.309 24.8475 48.0727 21.2424C48.9859 19.2872 49.4726 17.1569 49.5 14.9955C49.5114 12.4908 48.5196 10.0877 46.75 8.33223C44.9108 6.52737 42.4397 5.52944 39.875 5.55586C36.7453 5.52901 33.7533 6.85345 31.6525 9.19568L27.5 14.0266L23.3475 9.19568C21.2467 6.85345 18.2547 5.52901 15.125 5.55586Z" fill="#2E3A59"/>
</svg>
