<svg width="47" height="50" viewBox="0 0 47 50" fill="none" xmlns="http://www.w3.org/2000/svg">
<path d="M38.2158 49.9994C35.5476 50.0306 33.0185 48.7983 31.3808 46.669C29.7431 44.5397 29.1854 41.7587 29.8735 39.153L14.4367 30.2355C11.7692 32.7055 7.8592 33.2282 4.64805 31.5442C1.4369 29.8602 -0.391396 26.3282 0.0709534 22.7018C0.533303 19.0755 3.18782 16.1272 6.71647 15.321C10.2451 14.5148 13.8963 16.0223 15.8571 19.095L29.8711 10.9975C29.6897 10.3051 29.5937 9.59275 29.585 8.87657C29.5497 4.70625 32.4154 1.08352 36.4483 0.200449C40.4811 -0.682622 44.5734 1.41649 46.249 5.22764C47.9246 9.03879 46.7233 13.5153 43.372 15.9485C40.0207 18.3816 35.4398 18.1033 32.4011 15.2818L17.2331 24.0422C17.218 24.6885 17.1287 25.3308 16.9667 25.9563L32.4011 34.8712C35.2426 32.2357 39.4705 31.8289 42.7529 33.8751C46.0353 35.9213 47.5732 39.9224 46.5183 43.6716C45.4633 47.4207 42.0724 50.0051 38.2158 49.9994ZM38.2158 37.538C36.173 37.538 34.5169 39.2117 34.5169 41.2764C34.5169 43.3411 36.173 45.0148 38.2158 45.0148C40.2587 45.0148 41.9148 43.3411 41.9148 41.2764C41.9148 39.2117 40.2587 37.538 38.2158 37.538ZM8.62443 20.0919C6.58157 20.0919 4.9255 21.7657 4.9255 23.8303C4.9255 25.895 6.58157 27.5688 8.62443 27.5688C10.6673 27.5688 12.3234 25.895 12.3234 23.8303C12.3234 21.7657 10.6673 20.0919 8.62443 20.0919ZM38.2158 5.13813C36.173 5.13813 34.5169 6.81188 34.5169 8.87657C34.5169 10.9413 36.173 12.615 38.2158 12.615C40.2587 12.615 41.9148 10.9413 41.9148 8.87657C41.9148 6.81188 40.2587 5.13813 38.2158 5.13813Z" fill="#2E3A59"/>
</svg>
